<?xml version="1.0" encoding="utf-8"?>
<!-- Generator: Adobe Illustrator 25.0.1, SVG Export Plug-In . SVG Version: 6.00 Build 0)  -->
<svg version="1.1" id="Layer_1" xmlns="http://www.w3.org/2000/svg" xmlns:xlink="http://www.w3.org/1999/xlink" x="0px" y="0px"
	 viewBox="0 0 1720 949" style="enable-background:new 0 0 1720 949;" xml:space="preserve">
<style type="text/css">
	.st0{opacity:0.8;fill:#115283;stroke:#000000;stroke-width:0.6783;stroke-miterlimit:2.7132;enable-background:new    ;}
	.st1{opacity:0.8;fill:#E0E0E0;stroke:#000000;stroke-width:0.6783;stroke-miterlimit:2.7132;enable-background:new    ;}
	.st2{fill-opacity:0;stroke:#000000;stroke-width:0.6783;stroke-miterlimit:2.7132;stroke-opacity:0.8;}
	.st3{fill:none;stroke:#000000;stroke-width:0.3392;stroke-miterlimit:2.7132;stroke-opacity:0.8;}
	.st4{font-family:'ArialMT';}
	.st5{font-size:37.9595px;}
</style>
<g transform="translate(338.16468262639273,150.72015687457196) scale(0.6783021637238381)">
	<rect id="_x30__x5F_0" x="-432.1" y="138.4" class="st0" width="447.7" height="447.7"/>
	<rect id="_x30__x5F_1" x="-404.1" y="166.4" class="st1" width="447.7" height="447.7"/>
	<rect id="_x30__x5F_2" x="-376.1" y="194.4" class="st0" width="447.7" height="447.7"/>
	<rect id="_x30__x5F_3" x="-348.2" y="222.4" class="st1" width="447.7" height="447.7"/>
	<rect id="_x30__x5F_4" x="-320.2" y="250.3" class="st0" width="447.7" height="447.7"/>
	<rect id="_x30__x5F_5" x="-292.2" y="278.3" class="st1" width="447.7" height="447.7"/>
	<rect id="_x30__x5F_6" x="-264.2" y="306.3" class="st0" width="447.7" height="447.7"/>
	<rect id="_x30__x5F_7" x="-236.2" y="334.3" class="st1" width="447.7" height="447.7"/>
	<rect id="_x31__x5F_0" x="351.4" y="250.3" class="st0" width="223.9" height="223.9"/>
	<rect id="_x31__x5F_1" x="379.3" y="278.3" class="st1" width="223.9" height="223.9"/>
	<rect id="_x31__x5F_2" x="407.3" y="306.3" class="st0" width="223.9" height="223.9"/>
	<rect id="_x31__x5F_3" x="435.3" y="334.3" class="st1" width="223.9" height="223.9"/>
	<rect id="_x31__x5F_4" x="463.3" y="362.3" class="st0" width="223.9" height="223.9"/>
	<rect id="_x31__x5F_5" x="491.3" y="390.2" class="st1" width="223.9" height="223.9"/>
	<rect id="_x31__x5F_6" x="519.3" y="418.2" class="st0" width="223.9" height="223.9"/>
	<rect id="_x31__x5F_7" x="547.2" y="446.2" class="st1" width="223.9" height="223.9"/>
	<rect id="_x32__x5F_0" x="806.1" y="54.5" class="st0" width="167.9" height="167.9"/>
	<rect id="_x32__x5F_1" x="834" y="82.4" class="st1" width="167.9" height="167.9"/>
	<rect id="_x32__x5F_2" x="862" y="110.4" class="st0" width="167.9" height="167.9"/>
	<rect id="_x32__x5F_3" x="890" y="138.4" class="st1" width="167.9" height="167.9"/>
	<rect id="_x32__x5F_4" x="918" y="166.4" class="st0" width="167.9" height="167.9"/>
	<rect id="_x32__x5F_5" x="946" y="194.4" class="st1" width="167.9" height="167.9"/>
	<rect id="_x32__x5F_6" x="973.9" y="222.4" class="st0" width="167.9" height="167.9"/>
	<rect id="_x32__x5F_7" x="1001.9" y="250.3" class="st1" width="167.9" height="167.9"/>
	<rect id="_x32__x5F_8" x="1029.9" y="278.3" class="st0" width="167.9" height="167.9"/>
	<rect id="_x32__x5F_9" x="1057.9" y="306.3" class="st1" width="167.9" height="167.9"/>
	<rect id="_x32__x5F_10" x="1085.9" y="334.3" class="st0" width="167.9" height="167.9"/>
	<rect id="_x32__x5F_11" x="1113.9" y="362.3" class="st1" width="167.9" height="167.9"/>
	<rect id="_x32__x5F_12" x="1141.8" y="390.2" class="st0" width="167.9" height="167.9"/>
	<rect id="_x32__x5F_13" x="1169.8" y="418.2" class="st1" width="167.9" height="167.9"/>
	<rect id="_x32__x5F_14" x="1197.8" y="446.2" class="st0" width="167.9" height="167.9"/>
	<rect id="_x32__x5F_15" x="1225.8" y="474.2" class="st1" width="167.9" height="167.9"/>
	<rect id="_x32__x5F_16" x="1253.8" y="502.2" class="st0" width="167.9" height="167.9"/>
	<rect id="_x32__x5F_17" x="1281.7" y="530.2" class="st1" width="167.9" height="167.9"/>
	<rect id="_x32__x5F_18" x="1309.7" y="558.1" class="st0" width="167.9" height="167.9"/>
	<rect id="_x32__x5F_19" x="1337.7" y="586.1" class="st1" width="167.9" height="167.9"/>
	<rect id="_x32__x5F_20" x="1365.7" y="614.1" class="st0" width="167.9" height="167.9"/>
	<rect id="_x32__x5F_21" x="1393.7" y="642.1" class="st1" width="167.9" height="167.9"/>
	<rect id="_x32__x5F_22" x="1421.6" y="670.1" class="st0" width="167.9" height="167.9"/>
	<rect id="_x32__x5F_23" x="1449.6" y="698" class="st1" width="167.9" height="167.9"/>
	<rect id="conv_0" x="-98.3" y="676.2" class="st2" width="28" height="28"/>
	<rect id="conv_1" x="681.8" y="464.1" class="st2" width="56" height="56"/>
	<line id="conv_0_1_" class="st3" x1="-70.3" y1="704.2" x2="620.8" y2="628.6"/>
	<line id="conv_0_2_" class="st3" x1="-70.3" y1="676.2" x2="620.8" y2="628.6"/>
	<line id="conv_1_1_" class="st3" x1="737.7" y1="520.1" x2="1584.2" y2="715.9"/>
	<line id="conv_1_2_" class="st3" x1="737.7" y1="464.1" x2="1584.2" y2="715.9"/>
	<polygon id="fc_0" class="st1" points="1547.6,336.5 1582.5,336.5 1829.9,583.9 1794.9,583.9 	"/>
	<polygon id="fc_1" class="st1" points="1836.9,410.7 1871.8,410.7 1970.8,509.7 1935.8,509.7 	"/>
	<line id="fc_0_1_" class="st3" x1="1617.5" y1="865.9" x2="1794.9" y2="583.9"/>
	<line id="fc_0_2_" class="st3" x1="973.9" y1="54.5" x2="1547.6" y2="336.5"/>
	<line id="fc_1_1_" class="st3" x1="1829.9" y1="583.9" x2="1935.8" y2="509.7"/>
	<line id="fc_1_2_" class="st3" x1="1582.5" y1="336.5" x2="1836.9" y2="410.7"/>
	<text transform="matrix(1.4743 0 0 1.4743 333.8781 969.4625)" class="st4 st5">Convolution</text>
	<text transform="matrix(1.4743 0 0 1.4743 938.9715 969.4625)" class="st4 st5">Convolution</text>
	<text transform="matrix(1.4743 0 0 1.4743 1591.9073 969.4625)" class="st4 st5">Convolution</text>
	<text transform="matrix(1.4743 0 0 1.4743 -432.1122 69.1588)" class="st4 st5">8@128x128</text>
	<text transform="matrix(1.4743 0 0 1.4743 351.3671 181.0838)" class="st4 st5">8@64x64</text>
	<text transform="matrix(1.4743 0 0 1.4743 806.0598 -14.7853)" class="st4 st5">24@48x48</text>
	<text transform="matrix(1.4743 0 0 1.4743 1547.5669 267.2818)" class="st4 st5">1x100</text>
	<text transform="matrix(1.4743 0 0 1.4743 1836.8593 341.4805)" class="st4 st5">1x40</text>
</g>
</svg>
